<svg width="20" height="20" viewBox="0 0 20 20" fill="none" xmlns="http://www.w3.org/2000/svg">
<path d="M10.0518 11.6455C11.567 11.6455 13.0337 11.9493 14.4092 12.5527C15.7381 13.134 16.9208 13.9635 17.9258 15.0195L18.3809 15.499L17.9834 16.0244C17.0716 17.2313 15.8779 18.2315 14.5312 18.917C13.1203 19.6358 11.5961 20 10.001 20C8.41942 20 6.90875 19.6408 5.50684 18.9355C4.17128 18.2633 2.98142 17.278 2.06738 16.0889L1.66602 15.5654L2.11621 15.084C3.12342 14.0102 4.31528 13.1627 5.65527 12.5703C7.04169 11.9559 8.52117 11.6456 10.0518 11.6455ZM10.0518 13.1982C7.67586 13.1983 5.4571 14.07 3.7334 15.665C5.33514 17.442 7.58283 18.4472 10.001 18.4473C12.4458 18.4473 14.7107 17.4216 16.3125 15.6113C14.5976 14.0497 12.3988 13.1982 10.0518 13.1982ZM10.001 0C11.3498 0 12.6591 0.263803 13.8926 0.785156C15.0839 1.28876 16.1528 2.01026 17.0713 2.92871C17.9897 3.84716 18.7112 4.91611 19.2148 6.10742C19.7362 7.34092 20 8.65016 20 9.99902C20 11.0905 19.8246 12.1665 19.4785 13.1914L18.0078 12.6963C18.2984 11.8312 18.4473 10.9238 18.4473 10.001C18.4472 5.3444 14.6556 1.55574 9.99902 1.55566C5.34238 1.55566 1.55281 5.34435 1.55273 10.001C1.55273 10.9482 1.70857 11.8776 2.01465 12.7627L0.547852 13.2715C0.184014 12.2221 0 11.1213 0 10.001C1.71756e-05 8.64994 0.26382 7.34088 0.785156 6.10742C1.28876 4.91611 2.01026 3.84716 2.92871 2.92871C3.84716 2.01026 4.91611 1.28876 6.10742 0.785156C7.34088 0.26382 8.65216 1.73133e-05 10.001 0ZM10.0518 4.89648C11.7578 4.89648 13.1475 6.28517 13.1475 7.99121C13.1474 9.69723 11.7578 11.0859 10.0518 11.0859C8.34591 11.0857 6.95707 9.6971 6.95703 7.99121C6.95703 6.28529 8.34589 4.89669 10.0518 4.89648ZM10.0518 6.44922C9.20224 6.44942 8.51074 7.14164 8.51074 7.99121C8.51078 8.84075 9.20226 9.533 10.0518 9.5332C10.9014 9.5332 11.5937 8.84087 11.5938 7.99121C11.5938 7.14152 10.9015 6.44922 10.0518 6.44922Z" fill="#B2B8C2"/>
</svg>
