<svg width="16" height="16" viewBox="0 0 16 16" fill="none" xmlns="http://www.w3.org/2000/svg">
<path fill-rule="evenodd" clip-rule="evenodd" d="M6.52954 1.85626C3.75062 2.51889 1.68419 5.01808 1.68419 7.99992C1.68419 11.488 4.51184 14.3156 7.99992 14.3156C10.9818 14.3156 13.4809 12.2492 14.1436 9.4703C13.1961 10.2948 11.958 10.7941 10.6028 10.7941C7.62202 10.7941 5.2057 8.37781 5.2057 5.39708C5.2057 4.04179 5.70503 2.80374 6.52954 1.85626ZM0 7.99992C0 3.58168 3.58168 0 7.99992 0C8.5542 0 9.09619 0.0564954 9.62011 0.164329C10.0035 0.24324 10.282 0.575925 10.2922 0.967222C10.3023 1.35852 10.0416 1.70524 9.66279 1.80399C8.06687 2.22008 6.8899 3.67218 6.8899 5.39708C6.8899 7.44766 8.55218 9.10994 10.6028 9.10994C12.3277 9.10994 13.7798 7.93297 14.1958 6.33706C14.2946 5.95829 14.6413 5.6975 15.0326 5.70768C15.4239 5.71786 15.7566 5.99632 15.8355 6.3797C15.9433 6.90363 15.9998 7.44564 15.9998 7.99992C15.9998 12.4182 12.4182 15.9998 7.99992 15.9998C3.58168 15.9998 0 12.4182 0 7.99992Z" fill="#1D1D1D"/>
</svg>
