<svg width="19" height="19" viewBox="0 0 19 19" fill="none" xmlns="http://www.w3.org/2000/svg">
<path d="M9.49992 18.9998C4.25311 18.9998 0 14.7467 0 9.49992C0 4.25311 4.25311 0 9.49992 0C14.7467 0 18.9998 4.25311 18.9998 9.49992C18.9998 14.7467 14.7467 18.9998 9.49992 18.9998ZM7.37975 16.9504C6.4425 14.9623 5.99966 12.5698 5.88104 10.3751H1.72726C1.91211 11.837 2.62962 13.4055 3.58213 14.5298C4.53464 15.6542 5.96807 16.5277 7.37975 16.9504ZM7.62843 10.3751C7.77188 12.6921 8.43402 14.9434 9.49992 16.8642C10.5946 14.8926 11.2341 12.6261 11.3714 10.3751H7.62843ZM17.2489 10.3751H13.0961C12.9775 12.5698 12.5607 14.9623 11.6235 16.9504C13.0351 16.5277 14.4709 15.6542 15.4234 14.5298C16.3759 13.4055 17.064 11.837 17.2489 10.3751ZM1.72631 8.61799H5.88104C5.99966 6.4233 6.44345 4.04156 7.3807 2.05352C5.96902 2.47615 4.53464 3.34291 3.58213 4.46726C2.62962 5.59162 1.91116 7.15605 1.72631 8.61799ZM7.62843 8.61799H11.3695C11.2325 6.36708 10.5943 4.10732 9.49992 2.13558C8.40522 4.10724 7.76481 6.367 7.62748 8.61799H7.62843ZM11.6235 2.05352C12.5607 4.04156 12.9765 6.4233 13.0952 8.61799H17.2479C17.0631 7.15605 16.3759 5.58593 15.4234 4.46157C14.4709 3.33722 13.0351 2.47615 11.6235 2.05352Z" fill="#1D1D1D"/>
</svg>
