<svg width="20" height="17" viewBox="0 0 20 17" fill="none" xmlns="http://www.w3.org/2000/svg">
<path d="M9.37266 9.52207H3.75014C3.40733 9.52207 3.12473 9.83257 3.12473 10.2102V11.567H3.75014C4.4381 11.567 5.00097 12.1735 5.00097 12.9247V15.6407C5.00097 16.3944 4.4381 16.9976 3.75014 16.9976H1.25082C0.562097 17 0 16.3944 0 15.6407V12.9263C0 12.1727 0.562097 11.5694 1.25082 11.5694H1.87623V10.2126C1.87623 9.083 2.7186 8.16686 3.75014 8.16686H9.37498V6.81003H7.50029C6.46952 6.81003 5.62638 5.89469 5.62638 4.76508V2.04495C5.62638 0.916144 6.46952 0 7.50029 0H12.4997C13.5305 0 14.3736 0.916144 14.3736 2.04576V4.76104C14.3736 5.89065 13.5305 6.80679 12.4997 6.80679H10.6258V8.16362H16.2499C17.2814 8.16362 18.1238 9.07896 18.1238 10.2086V11.5654H18.7492C19.4379 11.5654 20 12.171 20 12.9222V15.6391C20 16.3919 19.4379 16.996 18.7492 16.996H16.2475C15.5604 16.996 14.9967 16.3895 14.9967 15.6383V12.9263C14.9967 12.1727 15.5604 11.5694 16.2475 11.5694H16.8729V10.2126C16.8729 9.83662 16.5927 9.5245 16.2475 9.5245H10.6235V11.5694H11.2489C11.9368 11.5694 12.4997 12.1751 12.4997 12.9263V15.6432C12.4997 16.396 11.9368 17 11.2489 17H8.74957C8.06084 17 7.49874 16.3936 7.49874 15.6424V12.9263C7.49874 12.1727 8.06084 11.5694 8.74957 11.5694H9.37498V9.52288H9.37266V9.52207ZM7.49874 1.36006C7.15516 1.36006 6.87334 1.67057 6.87334 2.04737V4.76427C6.87334 5.14027 7.15361 5.45158 7.49874 5.45158H12.4974C12.841 5.45158 13.1228 5.14189 13.1228 4.76427V2.04495C13.1228 1.66976 12.8425 1.35764 12.4974 1.35764H7.49874V1.35926V1.36006ZM1.25005 12.9263V15.6432H3.74937V12.9263H1.25082H1.25005ZM8.74879 12.9263V15.6432H11.2481V12.9263H8.74879ZM16.2475 12.9263V15.6432H18.7469V12.9263H16.2468H16.2475Z" fill="#B2B8C2"/>
</svg>
