<svg width="18" height="18" viewBox="0 0 18 18" fill="none" xmlns="http://www.w3.org/2000/svg">
<path fill-rule="evenodd" clip-rule="evenodd" d="M15.919 6.92282V13.6726H17.127C17.605 13.6726 17.9924 14.06 17.9924 14.5379C17.9924 15.0158 17.605 15.4033 17.127 15.4033H11.9944C11.7847 16.8714 10.5222 18 8.9962 18C7.47015 18 6.2077 16.8714 5.99804 15.4033H0.865352C0.387431 15.4033 0 15.0158 0 14.5379C0 14.06 0.387431 13.6726 0.865352 13.6726H2.07339V6.92282C2.07339 3.09945 5.17283 0 8.99621 0C12.8196 0 15.919 3.09945 15.919 6.92282ZM3.80409 6.92282C3.80409 4.05529 6.12868 1.7307 8.99621 1.7307C11.8637 1.7307 14.1883 4.05529 14.1883 6.92282V13.6726H3.80409V6.92282ZM8.9962 16.2693C8.43104 16.2693 7.95023 15.9081 7.77203 15.4039H10.2204C10.0422 15.9081 9.56136 16.2693 8.9962 16.2693Z" fill="#1D1D1D"/>
</svg>
