<svg width="18" height="18" viewBox="0 0 18 18" fill="none" xmlns="http://www.w3.org/2000/svg">
<path fill-rule="evenodd" clip-rule="evenodd" d="M8.20006 0C3.67131 0 0 3.67131 0 8.20006C0 12.7288 3.67131 16.4001 8.20006 16.4001C10.1534 16.4001 11.9472 15.7171 13.3558 14.5769L16.5265 17.7476C16.8636 18.0847 17.4101 18.0847 17.7472 17.7476C18.0843 17.4105 18.0843 16.864 17.7472 16.5269L14.5765 13.3562C15.717 11.9476 16.4001 10.1536 16.4001 8.20006C16.4001 3.67131 12.7288 0 8.20006 0ZM1.72633 8.20006C1.72633 4.62473 4.62473 1.72633 8.20006 1.72633C11.7754 1.72633 14.6738 4.62473 14.6738 8.20006C14.6738 11.7754 11.7754 14.6738 8.20006 14.6738C4.62473 14.6738 1.72633 11.7754 1.72633 8.20006Z" fill="#1D1D1D"/>
</svg>
