<svg width="15" height="15" viewBox="0 0 15 15" fill="none" xmlns="http://www.w3.org/2000/svg">
<path d="M10.3021 5.35415C10.2387 5.51086 10.0982 5.60376 9.93243 5.60376H7.97233V12.233C7.97233 12.4943 7.76141 12.7061 7.50018 12.7061C7.23888 12.7061 7.02797 12.4943 7.02797 12.233V5.60376H5.06205C4.89631 5.60376 4.75581 5.51086 4.6924 5.35415C4.62897 5.19742 4.66191 5.02971 4.77914 4.90979L7.21431 2.41803C7.29244 2.33806 7.38677 2.29834 7.49726 2.29834C7.60776 2.29834 7.70208 2.33851 7.78022 2.41848L10.2154 4.90972C10.3326 5.02964 10.3655 5.19743 10.3021 5.35415Z" fill="white" fill-opacity="0.8"/>
</svg>
