<svg width="20" height="17" viewBox="0 0 20 17" fill="none" xmlns="http://www.w3.org/2000/svg">
<path d="M16 14.0267H20V12.0267H16V14.0267ZM14 4.02669V6.02669H20V4.02669H14ZM15 10.0267H20V8.02669H15V10.0267ZM10.23 8.81669C11.0119 8.15498 11.5717 7.26911 11.8337 6.27887C12.0957 5.28864 12.0472 4.24183 11.6949 3.28003C11.3425 2.31824 10.7033 1.48787 9.86358 0.90123C9.0239 0.314594 8.02431 0 7 0C5.97569 0 4.9761 0.314594 4.13642 0.90123C3.29674 1.48787 2.65749 2.31824 2.30514 3.28003C1.95278 4.24183 1.90433 5.28864 2.16632 6.27887C2.42831 7.26911 2.98811 8.15498 3.77 8.81669C2.63355 9.40776 1.68108 10.2993 1.01633 11.3943C0.351585 12.4893 4.42014e-05 13.7457 0 15.0267C0.00137363 15.3616 0.0281168 15.6959 0.08 16.0267H2.08C2.02276 15.6965 1.99598 15.3618 2 15.0267C2 13.7006 2.52678 12.4288 3.46447 11.4912C4.40215 10.5535 5.67392 10.0267 7 10.0267C8.32608 10.0267 9.59785 10.5535 10.5355 11.4912C11.4732 12.4288 12 13.7006 12 15.0267C11.9974 15.3624 11.9639 15.6971 11.9 16.0267H13.9C13.9586 15.6964 13.992 15.3621 14 15.0267C14 13.7457 13.6484 12.4893 12.9837 11.3943C12.3189 10.2993 11.3664 9.40776 10.23 8.81669ZM7 8.02669C6.40666 8.02669 5.82664 7.85074 5.33329 7.5211C4.83994 7.19145 4.45542 6.72292 4.22836 6.17474C4.0013 5.62656 3.94189 5.02336 4.05764 4.44142C4.1734 3.85947 4.45912 3.32492 4.87868 2.90537C5.29824 2.48581 5.83279 2.20009 6.41473 2.08433C6.99667 1.96858 7.59987 2.02799 8.14805 2.25505C8.69623 2.48211 9.16476 2.86663 9.49441 3.35998C9.82405 3.85332 10 4.43334 10 5.02669C10 5.82234 9.68393 6.5854 9.12132 7.14801C8.55871 7.71062 7.79565 8.02669 7 8.02669Z" fill="#B2B8C2"/>
</svg>
